<?xml version="1.0" encoding="utf-8"?>
<!-- Generator: Adobe Illustrator 17.1.0, SVG Export Plug-In . SVG Version: 6.00 Build 0)  -->
<!DOCTYPE svg PUBLIC "-//W3C//DTD SVG 1.1//EN" "http://www.w3.org/Graphics/SVG/1.1/DTD/svg11.dtd">
<svg version="1.1" xmlns="http://www.w3.org/2000/svg" xmlns:xlink="http://www.w3.org/1999/xlink" x="0px" y="0px"
	 viewBox="0 0 468.9 104.4" enable-background="new 0 0 468.9 104.4" xml:space="preserve">
<g id="Logo_v1">
	<g id="Brash">
		<path d="M6,8.9h16.7c5.3,0,9.2,0.4,12,1.2c2.7,0.8,4.9,2.5,6.6,5c1.7,2.5,2.5,6.5,2.5,12.1c0,3.8-0.6,6.4-1.8,7.8
			c-1.2,1.5-3.5,2.6-7,3.4c3.9,0.9,6.5,2.3,7.9,4.3c1.4,2,2.1,5.1,2.1,9.3v6c0,4.3-0.5,7.6-1.5,9.6c-1,2.1-2.6,3.5-4.7,4.3
			c-2.2,0.8-6.6,1.2-13.3,1.2H6V8.9z M22.7,19.9v14.3c0.7,0,1.3,0,1.7,0c1.6,0,2.7-0.4,3.1-1.2c0.4-0.8,0.7-3.1,0.7-6.9
			c0-2-0.2-3.4-0.6-4.2c-0.4-0.8-0.9-1.3-1.4-1.5C25.6,20,24.5,19.9,22.7,19.9z M22.7,44.1v18c2.4-0.1,3.9-0.4,4.5-1.1
			c0.6-0.7,1-2.3,1-4.9v-6c0-2.8-0.3-4.4-0.9-5C26.8,44.6,25.2,44.2,22.7,44.1z"/>
		<path d="M50.9,8.9h11.8c7.9,0,13.2,0.3,16,0.9c2.8,0.6,5.1,2.2,6.8,4.7c1.8,2.5,2.6,6.5,2.6,12c0,5-0.6,8.4-1.9,10.1
			c-1.2,1.7-3.7,2.8-7.3,3.1c3.3,0.8,5.5,1.9,6.7,3.3c1.1,1.4,1.8,2.6,2.1,3.8c0.3,1.2,0.4,4.3,0.4,9.5v16.9H72.7V51.8
			c0-3.4-0.3-5.6-0.8-6.4c-0.5-0.8-2-1.2-4.3-1.2v29H50.9V8.9z M67.6,19.9v14.3c1.9,0,3.2-0.3,3.9-0.8c0.8-0.5,1.1-2.2,1.1-5v-3.5
			c0-2-0.4-3.4-1.1-4C70.9,20.2,69.5,19.9,67.6,19.9z"/>
		<path d="M123.5,8.9l9.5,64.2H116l-0.9-11.5h-6l-1,11.5H90.9l8.5-64.2H123.5z M114.7,50.2c-0.8-7.3-1.7-16.3-2.5-27
			c-1.7,12.3-2.8,21.3-3.2,27H114.7z"/>
		<path d="M171.3,28.3h-15.5v-4.8c0-2.2-0.2-3.6-0.6-4.2c-0.4-0.6-1.1-0.9-2-0.9c-1,0-1.8,0.4-2.3,1.2c-0.5,0.8-0.8,2.1-0.8,3.7
			c0,2.1,0.3,3.8,0.9,4.8c0.6,1.1,2.1,2.4,4.7,3.9c7.4,4.4,12.1,8,14,10.9c1.9,2.8,2.9,7.4,2.9,13.7c0,4.6-0.5,7.9-1.6,10.1
			c-1.1,2.2-3.1,4-6.2,5.5c-3.1,1.5-6.6,2.2-10.7,2.2c-4.5,0-8.3-0.8-11.4-2.5c-3.2-1.7-5.2-3.8-6.2-6.5c-1-2.6-1.5-6.3-1.5-11.1
			v-4.2h15.5v7.8c0,2.4,0.2,4,0.7,4.6c0.4,0.7,1.2,1,2.3,1c1.1,0,1.9-0.4,2.5-1.3c0.5-0.9,0.8-2.2,0.8-3.9c0-3.8-0.5-6.3-1.5-7.4
			c-1.1-1.2-3.7-3.1-7.8-5.8c-4.2-2.8-6.9-4.7-8.2-6c-1.3-1.2-2.5-3-3.4-5.2c-0.9-2.2-1.3-5-1.3-8.4c0-4.9,0.6-8.5,1.9-10.8
			c1.3-2.3,3.3-4.1,6.1-5.3c2.8-1.3,6.2-1.9,10.2-1.9c4.3,0,8,0.7,11.1,2.1c3.1,1.4,5.1,3.2,6.1,5.3c1,2.1,1.5,5.7,1.5,10.8V28.3z"
			/>
		<path d="M216.3,8.9v64.2h-16.7v-30h-5v30h-16.7V8.9h16.7v26h5v-26H216.3z"/>
	</g>
	<g id="Puppy">
		<path fill="#808285" d="M223.9,24.7c0-5.7-0.2-10.3-0.4-14.6h7.1l0.5,7.7h0.2c3.2-5.4,8.4-8.6,15.6-8.6c10.7,0,18.7,9.1,18.7,22.6
			c0,16-9.7,24-20,24c-5.8,0-10.9-2.6-13.5-7h-0.2v24.2h-7.9V24.7z M231.8,36.6c0,1.2,0.1,2.3,0.4,3.3c1.5,5.6,6.3,9.5,12,9.5
			c8.4,0,13.3-7,13.3-17.2c0-8.9-4.6-16.5-13.1-16.5c-5.4,0-10.6,3.9-12.1,10c-0.3,1-0.5,2.2-0.5,3.2V36.6z"/>
		<path fill="#808285" d="M312.2,42.5c0,4.7,0.1,8.8,0.4,12.3h-7.1l-0.5-7.3h-0.2c-2,3.6-6.7,8.3-14.5,8.3c-6.9,0-15.1-4-15.1-19.5
			V10.2h8v24.6c0,8.5,2.6,14.3,9.8,14.3c5.4,0,9.1-3.8,10.5-7.5c0.5-1.1,0.7-2.6,0.7-4.1V10.2h8V42.5z"/>
		<path fill="#808285" d="M325.4,24.7c0-5.7-0.2-10.3-0.4-14.6h7.1l0.5,7.7h0.2c3.2-5.4,8.4-8.6,15.6-8.6c10.7,0,18.7,9.1,18.7,22.6
			c0,16-9.7,24-20,24c-5.8,0-10.9-2.6-13.5-7h-0.2v24.2h-7.9V24.7z M333.3,36.6c0,1.2,0.1,2.3,0.4,3.3c1.5,5.6,6.3,9.5,12,9.5
			c8.4,0,13.3-7,13.3-17.2c0-8.9-4.6-16.5-13.1-16.5c-5.4,0-10.6,3.9-12.1,10c-0.3,1-0.5,2.2-0.5,3.2V36.6z"/>
		<path fill="#808285" d="M377,24.7c0-5.7-0.2-10.3-0.4-14.6h7.1l0.5,7.7h0.2c3.2-5.4,8.4-8.6,15.6-8.6c10.7,0,18.7,9.1,18.7,22.6
			c0,16-9.7,24-20,24c-5.8,0-10.9-2.6-13.5-7h-0.2v24.2H377V24.7z M384.9,36.6c0,1.2,0.1,2.3,0.4,3.3c1.5,5.6,6.3,9.5,12,9.5
			c8.4,0,13.3-7,13.3-17.2c0-8.9-4.6-16.5-13.1-16.5c-5.4,0-10.6,3.9-12.1,10c-0.3,1-0.5,2.2-0.5,3.2V36.6z"/>
		<path fill="#808285" d="M430.9,10.2l9.5,26.4c1.1,3,2.2,6.5,2.9,9.1h0.2c0.8-2.7,1.7-6.1,2.8-9.3l8.7-26.2h8.4l-12,31.8
			c-5.7,15.3-9.6,23-15.1,27.9c-4,3.4-7.8,4.8-9.8,5.2l-2-6.7c2-0.6,4.6-1.9,7-4c2.2-1.8,4.8-4.9,6.7-9c0.4-0.8,0.6-1.5,0.6-1.9
			c0-0.5-0.2-1.1-0.6-2.1l-16.1-41.1H430.9z"/>
	</g>
	<g id="Squares">
		<rect x="177.9" y="80.7" fill="#BFD730" width="16.7" height="16.7"/>
		<rect x="199.5" y="80.7" fill="#92278F" width="16.7" height="16.7"/>
		<rect x="360.3" y="80.7" fill="#00B9F2" width="16.7" height="16.7"/>
		<rect x="381.9" y="80.7" fill="#FFCB05" width="16.7" height="16.7"/>
	</g>
	<g id="Creative">
		<text transform="matrix(1 0 0 1 222.3945 96.5411)"><tspan x="0" y="0" font-family="'HelveticaNeue-Light'" font-size="30" letter-spacing="4">c</tspan><tspan x="20.1" y="0" font-family="'HelveticaNeue-Light'" font-size="30" letter-spacing="3">r</tspan><tspan x="33.5" y="0" font-family="'HelveticaNeue-Light'" font-size="30" letter-spacing="4">eative</tspan></text>
	</g>
	<g id="Guides">
	</g>
</g>
<g id="Layer_7">
</g>
</svg>
