<?xml version="1.0" encoding="utf-8"?>
<!-- Generator: Adobe Illustrator 17.1.0, SVG Export Plug-In . SVG Version: 6.00 Build 0)  -->
<!DOCTYPE svg PUBLIC "-//W3C//DTD SVG 1.1//EN" "http://www.w3.org/Graphics/SVG/1.1/DTD/svg11.dtd">
<svg version="1.1" xmlns="http://www.w3.org/2000/svg" xmlns:xlink="http://www.w3.org/1999/xlink" x="0px" y="0px"
	 viewBox="0 0 121 119" enable-background="new 0 0 121 119" xml:space="preserve">
<g id="blue_circle" display="none">
	<circle display="inline" fill="#00B9F2" stroke="#000000" stroke-width="6" stroke-miterlimit="10" cx="60.5" cy="59.5" r="50"/>
</g>
<g id="purple_circle">
	<circle fill="#92278F" stroke="#000000" stroke-width="6" stroke-miterlimit="10" cx="60.5" cy="59.5" r="50"/>
</g>
<g id="Layer_5" display="none">
	<circle display="inline" fill="#BFD730" stroke="#000000" stroke-width="6" stroke-miterlimit="10" cx="60.5" cy="59.5" r="50"/>
</g>
<g id="business_logo">
	<path fill="#FFFFFF" d="M48,36.8c0-6.9,5.6-12.5,12.5-12.5S73,29.8,73,36.8s-5.6,12.5-12.5,12.5S48,43.7,48,36.8z M77.2,53.4h-2.3
		l-13,26.3l4.8-24.2l-6.2-6.2l-6.2,6.2l4.8,24.2l-13-26.3h-2.3c-8.3,0-8.3,5.6-8.3,12.5v20.8h50V65.9C85.5,59,85.5,53.4,77.2,53.4
		L77.2,53.4z"/>
</g>
<g id="template_logo" display="none">
	<path display="inline" fill="#FFFFFF" d="M36.1,43.2v40.6H93V43.2H36.1z M88.9,77.1l-8.1-13.5l-9.2,7.7l-7-11.7L40.2,79.8V47.3
		h48.8V77.1z M44.2,57.5c0-3.4,2.7-6.1,6.1-6.1s6.1,2.7,6.1,6.1s-2.7,6.1-6.1,6.1S44.2,60.8,44.2,57.5z M84.9,35.1H28v40.6h4.1V39.2
		h52.8V35.1z"/>
</g>
<g id="screen_logo" display="none">
	<path display="inline" fill="#FFFFFF" d="M90.5,78.2v-45h-60v45h26.2V82H45.5v3.8h30V82H64.2v-3.8H90.5z M38,40.8h45v30H38V40.8z"
		/>
</g>
</svg>
