<?xml version="1.0" encoding="utf-8"?>
<!-- Generator: Adobe Illustrator 17.1.0, SVG Export Plug-In . SVG Version: 6.00 Build 0)  -->
<!DOCTYPE svg PUBLIC "-//W3C//DTD SVG 1.1//EN" "http://www.w3.org/Graphics/SVG/1.1/DTD/svg11.dtd">
<svg version="1.1" id="lens_copy" xmlns="http://www.w3.org/2000/svg" xmlns:xlink="http://www.w3.org/1999/xlink" x="0px" y="0px"
	 viewBox="0 0 200 200" enable-background="new 0 0 200 200" xml:space="preserve">
<rect fill="#26B7EB" width="200" height="200"/>
<g id="package">
	<path d="M136.2,72.4c2.5-1.8,5-3.8,7.2-6c4.7-4.7,7.8-10.4,8.8-16.1c1.1-6.3-0.5-12.2-4.4-16.1c-3.1-3.1-7.3-4.8-12.2-4.8
		c-6.9,0-14.2,3.3-20,9.1c-9.3,9.3-14.7,22.1-17.6,31.2c-2.2-9.2-6.4-21.6-14.8-29.9C78.7,35.3,73,33,67.6,33
		c-4.4,0-8.6,1.5-11.8,4.7c-7,7-6,19.2,2.1,27.4c2.9,2.9,6.3,5.3,9.9,7.3H37.5v35.7h8.9v62.5h107.1v-62.5h8.9V72.4H136.2L136.2,72.4
		z M122.6,45.6c3.9-3.9,8.7-6.2,12.9-6.2c1.5,0,3.6,0.3,5.1,1.8c3.6,3.6,1.6,12-4.4,18c-6.1,6.1-14.4,10.3-21.5,13.1h-7.1
		C110.3,64.4,114.9,53.3,122.6,45.6L122.6,45.6z M61.2,50.2c-0.1-1.3,0-3.7,1.7-5.4c1.4-1.4,3.3-1.7,4.7-1.7l0,0
		c3,0,6.1,1.4,8.5,3.8c4.7,4.7,8.6,12.2,11.3,21.7c0.1,0.3,0.1,0.5,0.2,0.8c-0.3-0.1-0.5-0.1-0.8-0.2c-9.5-2.6-17-6.5-21.7-11.3
		C62.8,55.8,61.4,52.9,61.2,50.2z M91.1,161.7H55.4v-58h35.7V161.7z M91.1,99.2H46.4V81.3h44.6V99.2z M144.6,161.7h-35.7v-58h35.7
		V161.7z M153.6,99.2h-44.6V81.3h44.6V99.2z"/>
</g>
<circle opacity="0.15" fill="#FFFFFF" cx="100" cy="-24" r="116.5"/>
</svg>
