<?xml version="1.0" encoding="utf-8"?>
<!-- Generator: Adobe Illustrator 17.1.0, SVG Export Plug-In . SVG Version: 6.00 Build 0)  -->
<!DOCTYPE svg PUBLIC "-//W3C//DTD SVG 1.1//EN" "http://www.w3.org/Graphics/SVG/1.1/DTD/svg11.dtd">
<svg version="1.1" xmlns="http://www.w3.org/2000/svg" xmlns:xlink="http://www.w3.org/1999/xlink" x="0px" y="0px"
	 viewBox="0 0 121 119" enable-background="new 0 0 121 119" xml:space="preserve">
<g id="blue_circle">
	<circle fill="#00B9F2" stroke="#000000" stroke-width="6" stroke-miterlimit="10" cx="60.5" cy="59.5" r="50"/>
</g>
<g id="purple_circle" display="none">
	<circle display="inline" fill="#92278F" stroke="#000000" stroke-width="6" stroke-miterlimit="10" cx="60.5" cy="59.5" r="50"/>
</g>
<g id="Layer_5" display="none">
	<circle display="inline" fill="#BFD730" stroke="#000000" stroke-width="6" stroke-miterlimit="10" cx="60.5" cy="59.5" r="50"/>
</g>
<g id="coin_logo" display="none">
	<path display="inline" fill="#FFFFFF" d="M60.5,24.5c-19.3,0-35,15.7-35,35s15.7,35,35,35s35-15.7,35-35S79.8,24.5,60.5,24.5z
		 M60.5,87.5c-15.5,0-28-12.5-28-28s12.5-28,28-28s28,12.5,28,28S76,87.5,60.5,87.5z M62.8,57.2v-9.3h9.3v-4.7h-9.3v-4.7h-4.7v4.7
		h-9.3v18.7h9.3v9.3h-9.3v4.7h9.3v4.7h4.7v-4.7h9.3V57.2H62.8z M58.2,57.2h-4.7v-9.3h4.7V57.2z M67.5,71.2h-4.7v-9.3h4.7V71.2z"/>
</g>
<g id="template_logo">
	<path fill="#FFFFFF" d="M36.1,43.2v40.6H93V43.2H36.1z M88.9,77.1l-8.1-13.5l-9.2,7.7l-7-11.7L40.2,79.8V47.3h48.8V77.1z
		 M44.2,57.5c0-3.4,2.7-6.1,6.1-6.1s6.1,2.7,6.1,6.1s-2.7,6.1-6.1,6.1S44.2,60.8,44.2,57.5z M84.9,35.1H28v40.6h4.1V39.2h52.8V35.1z
		"/>
</g>
<g id="screen_logo" display="none">
	<path display="inline" fill="#FFFFFF" d="M90.5,78.2v-45h-60v45h26.2V82H45.5v3.8h30V82H64.2v-3.8H90.5z M38,40.8h45v30H38V40.8z"
		/>
</g>
</svg>
